# AST/ASF file generated using VICON BodyLanguage
# -----------------------------------------------
:version 1.10
:name VICON
:units
  mass 1.0
  length 0.45
  angle deg
:documentation
   .ast/.asf automatically generated from VICON data using
   VICON BodyBuilder and BodyLanguage model FoxedUp or BRILLIANT.MOD
:root
   order TX TY TZ RX RY RZ
   axis XYZ
   position 0 0 0  
   orientation 0 0 0 
:bonedata
  begin
     id 1 
     name lhipjoint
     direction 0.702568 -0.596508 0.388042 
     length 2.56661 
     axis 0 0 0  XYZ
  end
  begin
     id 2 
     name lfemur
     direction 0.34202 -0.939693 0  
     length 6.58374  
     axis 0 0 20  XYZ
    dof rx ry rz
    limits (-160.0 20.0)
           (-70.0 70.0)
           (-60.0 70.0)
  end
  begin
     id 3 
     name ltibia
     direction 0.34202 -0.939693 0   
     length 6.62538   
     axis 0 0 20   XYZ
    dof rx
    limits (-10.0 170.0)
  end
  begin
     id 4 
     name lfoot
     direction 0.10455 -0.287249 0.952133   
     length 2.26699   
     axis -90 7.62852e-016 20   XYZ
    dof rx rz
    limits (-45.0 90.0)
           (-70.0 20.0)
  end
  begin
     id 5 
     name ltoes
     direction 1.53572e-011 -4.22322e-011 1   
     length 1.12949   
     axis -90 7.62852e-016 20   XYZ
    dof rx
    limits (-90.0 20.0)
  end
  begin
     id 6 
     name rhipjoint
     direction -0.728055 -0.574632 0.373811   
     length 2.66432  
     axis 0 0 0  XYZ 
  end
  begin
     id 7 
     name rfemur
     direction -0.34202 -0.939693 0   
     length 6.66732   
     axis 0 0 -20   XYZ
    dof rx ry rz
    limits (-160.0 20.0)
           (-70.0 70.0)
           (-70.0 60.0)
  end
  begin
     id 8 
     name rtibia
     direction -0.34202 -0.939693 0   
     length 6.59288   
     axis 0 0 -20   XYZ
    dof rx
    limits (-10.0 170.0)
 end
 begin
     id 9 
     name rfoot
     direction -0.119193 -0.327479 0.93731   
     length 2.38061  
     axis -90 -7.62852e-016 -20   XYZ
    dof rx rz
    limits (-45.0 90.0)
           (-20.0 70.0)
  end
  begin
     id 10 
     name rtoes
     direction -1.53547e-011 -4.21827e-011 1   
     length 1.17899   
     axis -90 -7.62852e-016 -20   XYZ
    dof rx
    limits (-90.0 20.0)
  end
  begin
     id 11 
     name lowerback
     direction -0.000416114 0.999912 -0.0132284   
     length 2.12109   
     axis 0 0 0   XYZ
    dof rx ry rz
    limits (-20.0 45.0)
           (-30.0 30.0)
           (-30.0 30.0)
  end
  begin
     id 12 
     name upperback
     direction -0.00136371 0.99809 0.0617608   
     length 2.10067   
     axis 0 0 0   XYZ
    dof rx ry rz
    limits (-20.0 45.0)
           (-30.0 30.0)
           (-30.0 30.0)
  end
  begin
     id 13 
     name thorax
     direction -3.43026e-005 0.997776 0.0666515   
     length 2.10618   
     axis 0 0 0   XYZ
    dof rx ry rz
    limits (-20.0 45.0)
           (-30.0 30.0)
           (-30.0 30.0)
  end
  begin
     id 14 
     name lowerneck
     direction 0.0398646 0.998418 0.0396592   
     length 1.83817   
     axis 0 0 0   XYZ
    dof rx ry rz
    limits (-20.0 45.0)
           (-30.0 30.0)
           (-30.0 30.0)
  end
  begin
     id 15 
     name upperneck
     direction -0.0367268 0.961527 -0.272244   
     length 1.81975   
     axis 0 0 0   XYZ
    dof rx ry rz
    limits (-20.0 45.0)
           (-30.0 30.0)
           (-30.0 30.0)
  end
  begin
     id 16
     name head
     direction -0.0182665 0.99536 -0.0944669  
     length 1.86026  
     axis 0 0 0   XYZ
    dof rx ry rz
    limits (-20.0 45.0)
           (-30.0 30.0)
           (-30.0 30.0)
  end
  begin
     id 17 
     name lclavicle
     direction 0.924239 0.361045 0.124212  
     length 3.26878  
     axis 0 0 0   XYZ
    dof ry rz
    limits (-20.0 10.0)
           (0.0 20.0)
  end
  begin
     id 18 
     name lhumerus
     direction 1 -4.48968e-011 -2.56583e-027   
     length 4.58538   
     axis 180 -30 -90   XYZ
    dof rx ry rz
    limits (-60.0 90.0)
           (-90.0 90.0)
           (-90.0 90.0)
  end
  begin
     id 19
     name lradius
     direction 1 -4.4898e-011 -5.50375e-027   
     length 2.68935   
     axis 180 -30 -90   XYZ
    dof rx
    limits (-10.0 170.0)
  end
  begin
     id 20
     name lwrist
     direction 1 -4.48939e-011 -1.48955e-026   
     length 1.34468   
     axis 9.0955e-015 90 90   XYZ
    dof ry
    limits (-180.0 0.0)
 end
  begin
     id 21 
     name lhand
     direction 1 -4.48936e-011 -2.97907e-026   
     length 0.585058   
     axis 1.90115e-014 90 90   XYZ
    dof rx rz
    limits (-90.0 90.0)
           (-45.0 45.0)
  end
  begin
     id 22 
     name lfingers
     direction 1 -4.49082e-011 -5.96235e-026   
     length 0.471689   
     axis 3.80223e-014 90 90   XYZ
    dof rx
    limits (0.0 90.0)
  end
  begin
     id 23
     name lthumb
     direction 0.707107 -6.3489e-011 0.707107   
     length 0.677253   
     axis -90 45 -3.84942e-014   XYZ
    dof rx rz
    limits (-45.0 45.0)
           (-45.0 45.0)
  end
  begin
     id 24 
     name rclavicle
     direction -0.923098 0.371783 0.0983239   
     length 3.19656  
     axis 0 0 0   XYZ 
    dof ry rz
    limits (-10.0 20.0)
           (-20.0 0.0)
  end
  begin
     id 25 
     name rhumerus
     direction -1 -4.48976e-011 -2.5492e-027  
     length 4.4745   
     axis 180 30 90   XYZ
    dof rx ry rz
    limits (-90.0 60.0)
           (-90.0 90.0)
           (-90.0 90.0)
  end
  begin
     id 26 
     name rradius
     direction -1 -4.48941e-011 -4.36555e-027   
     length 2.93896   
     axis 180 30 90   XYZ
    dof rx
    limits (-10.0 170.0)
  end
  begin
     id 27 
     name rwrist
     direction -1 -4.49044e-011 -1.49032e-026   
     length 1.46948   
     axis 9.0955e-015 -90 -90   XYZ
    dof ry
    limits (-180.0 0.0)
  end
  begin
     id 28
     name rhand
     direction -1 -4.48826e-011 -2.97749e-026   
     length 0.405092   
     axis 1.90115e-014 -90 -90   XYZ
    dof rx rz
    limits (-90.0 90.0)
           (-45.0 45.0)
  end
  begin
     id 29
     name rfingers
     direction -1 -4.49209e-011 -5.96602e-026   
     length 0.326596   
     axis 3.80223e-014 -90 -90   XYZ
    dof rx
    limits (0.0 90.0)
  end
  begin
     id 30
     name rthumb
     direction -0.707107 -6.34776e-011 0.707107   
     length 0.468928   
     axis -90 -45 3.84942e-014   XYZ
    dof rx rz
    limits (-45.0 45.0)
           (-45.0 45.0)
  end
:hierarchy
  begin
    root lhipjoint rhipjoint lowerback
    lhipjoint lfemur
    lfemur ltibia
    ltibia lfoot
    lfoot ltoes
    rhipjoint rfemur
    rfemur rtibia
    rtibia rfoot
    rfoot rtoes
    lowerback upperback
    upperback thorax
    thorax lowerneck lclavicle rclavicle
    lowerneck upperneck
    upperneck head
    lclavicle lhumerus
    lhumerus lradius
    lradius lwrist
    lwrist lhand lthumb
    lhand lfingers
    rclavicle rhumerus
    rhumerus rradius
    rradius rwrist
    rwrist rhand rthumb
    rhand rfingers
  end

#!OML:ASF H:\Punching\Project 1\Capture day 1\Session 1\female.ASF
:FULLY-SPECIFIED
:DEGREES
349
root 2.27086 15.579 2.39802 -26.1758 15.2504 -9.5653
lowerback 8.91298 -2.69585 -0.354026
upperback 4.35259 -3.48938 8.5865
thorax 0.137123 -1.85882 9.60175
lowerneck -3.77776 -2.21324 7.79632
upperneck 45.5956 -1.69754 -7.64655
head 17.1761 -0.136496 -5.17559
rclavicle 3.97569e-016 -4.45278e-014
rhumerus -20.2116 10.9732 -70.7541
rradius 131.235
rwrist -14.2083
rhand -33.2384 11.5479
rfingers 7.12502
rthumb -6.4444 -18.3341
lclavicle 3.97569e-016 -4.45278e-014
lhumerus -5.00709 -35.0273 81.8631
lradius 134.705
lwrist -1.73755
lhand -28.7331 0.78724
lfingers 7.12502
lthumb -2.09391 30.7567
rfemur -103.922 -8.90028 14.8134
rtibia 78.1004
rfoot 19.4745 -3.09472
rtoes -20.4823
lfemur 20.0452 -13.0335 -24.9013
ltibia 17.2882
lfoot -7.50469 4.10508
ltoes 17.3418
350
root 2.28042 15.5965 2.43538 -26.5651 15.5174 -9.75618
lowerback 8.87921 -2.71299 -0.308699
upperback 4.36211 -3.50949 8.62186
thorax 0.168958 -1.86913 9.61356
lowerneck -3.39899 -2.37503 7.83588
upperneck 45.9679 -1.95466 -7.53677
head 17.2763 -0.197857 -5.17778
rclavicle 8.34896e-015 -2.22639e-014
rhumerus -20.4905 10.8324 -70.9133
rradius 131.003
rwrist -14.0326
rhand -33.4145 12.2632
rfingers 7.12502
rthumb -6.61436 -17.6135
lclavicle 8.34896e-015 -2.22639e-014
lhumerus -5.30482 -35.3271 82.557
lradius 134.686
lwrist -1.34134
lhand -28.3263 0.866199
lfingers 7.12502
lthumb -1.70106 30.8392
rfemur -102.621 -8.98138 12.9512
rtibia 71.8009
rfoot 19.5127 -3.68848
rtoes -20.4327
lfemur 21.4645 -13.0379 -24.9624
ltibia 15.5127
lfoot -6.888 4.36017
ltoes 17.5676
351
root 2.29017 15.6149 2.4659 -26.8737 15.7584 -9.89862
lowerback 8.80383 -2.72574 -0.290739
upperback 4.35131 -3.52713 8.63937
thorax 0.202292 -1.87814 9.61919
lowerneck -3.01792 -2.52881 7.87544
upperneck 46.3569 -2.20413 -7.41709
head 17.3906 -0.253439 -5.175
rclavicle -1.59028e-015 -2.54444e-014
rhumerus -20.7323 10.7327 -71.0961
rradius 130.668
rwrist -13.6787
rhand -33.7583 13.3385
rfingers 7.12502
rthumb -6.94627 -16.5276
lclavicle -1.59028e-015 -2.54444e-014
lhumerus -5.63082 -35.5641 83.2467
lradius 134.729
lwrist -0.772198
lhand -27.7307 0.950731
lfingers 7.12502
lthumb -1.1258 30.9275
rfemur -101.054 -8.97638 10.6241
rtibia 65.3297
rfoot 19.2805 -4.345
rtoes -20.6653
lfemur 22.9086 -13.0895 -25.0519
ltibia 13.4882
lfoot -6.13217 4.54147
ltoes 17.7612
352
root 2.29948 15.6336 2.48986 -27.0855 15.9857 -10.005
lowerback 8.66542 -2.73452 -0.289299
upperback 4.31307 -3.5425 8.63525
thorax 0.240493 -1.88559 9.60677
lowerneck -2.63435 -2.67755 7.92291
upperneck 46.7549 -2.4574 -7.27502
head 17.5136 -0.305539 -5.16346
rclavicle 2.14687e-014 -5.56597e-014
rhumerus -20.9581 10.6436 -71.3053
rradius 130.282
rwrist -13.2192
rhand -34.1934 14.5902
rfingers 7.12502
rthumb -7.36628 -15.2616
lclavicle 2.14687e-014 -5.56597e-014
lhumerus -5.9939 -35.7867 83.9279
lradius 134.818
lwrist -0.111679
lhand -27.0372 0.985161
lfingers 7.12502
lthumb -0.455982 30.9644
rfemur -99.2819 -8.84008 7.6359
rtibia 58.8736
rfoot 18.9244 -5.41485
rtoes -21.1583
lfemur 24.3567 -13.1863 -25.1489
ltibia 11.2078
lfoot -5.22302 4.63635
ltoes 17.9424
353
root 2.30807 15.6505 2.50989 -27.2017 16.2127 -10.0935
lowerback 8.41119 -2.7426 -0.290333
upperback 4.27527 -3.56333 8.61011
thorax 0.342535 -1.89723 9.56498
lowerneck -2.28533 -2.81863 7.99287
upperneck 47.1476 -2.71401 -7.11751
head 17.6457 -0.353168 -5.14931
rclavicle 2.5842e-014 -3.33958e-014
rhumerus -21.1363 10.5153 -71.5296
rradius 129.986
rwrist -12.8633
rhand -34.4867 15.3732
rfingers 7.12502
rthumb -7.64936 -14.4684
lclavicle 2.5842e-014 -3.33958e-014
lhumerus -6.32213 -36.0198 84.5466
lradius 134.942
lwrist 0.611102
lhand -26.3008 0.976033
lfingers 7.12502
lthumb 0.255225 30.9556
rfemur -97.3535 -8.51363 3.70334
rtibia 52.6791
rfoot 18.6627 -7.35724
rtoes -21.8531
lfemur 25.7808 -13.1301 -25.1394
ltibia 8.69499
lfoot -4.18404 4.44179
ltoes 18.0782
354
root 2.31629 15.6637 2.52991 -27.2536 16.4652 -10.1712
lowerback 8.06945 -2.75581 -0.291819
upperback 4.23173 -3.59528 8.56095
thorax 0.487005 -1.9151 9.49182
lowerneck -1.95663 -2.95645 8.0751
upperneck 47.5307 -2.98019 -6.93717
head 17.7801 -0.399917 -5.12684
rclavicle -2.98177e-014 -2.38542e-014
rhumerus -21.2986 10.3413 -71.764
rradius 129.837
rwrist -12.7163
rhand -34.5666 15.5169
rfingers 7.12502
rthumb -7.72645 -14.322
lclavicle -2.98177e-014 -2.38542e-014
lhumerus -6.62863 -36.2748 85.1081
lradius 135.076
lwrist 1.35446
lhand -25.5655 0.99114
lfingers 7.12502
lthumb 0.96542 30.9687
rfemur -95.2788 -7.89727 -1.59331
rtibia 47.0257
rfoot 18.4565 -10.9972
rtoes -21.9712
lfemur 27.2333 -13.104 -25.1151
ltibia 5.9663
lfoot -3.00887 4.17951
ltoes 18.1668
355
root 2.32378 15.6725 2.55148 -27.2627 16.7545 -10.2485
lowerback 7.66175 -2.77641 -0.292055
upperback 4.1838 -3.64003 8.49107
thorax 0.66397 -1.93975 9.39154
lowerneck -1.64522 -3.09178 8.16033
upperneck 47.8971 -3.25471 -6.73409
head 17.912 -0.447324 -5.09335
rclavicle -5.52621e-014 4.29375e-014
rhumerus -21.4535 10.1171 -72.0019
rradius 129.864
rwrist -12.835
rhand -34.3394 14.849
rfingers 7.12502
rthumb -7.50717 -14.9978
lclavicle -5.52621e-014 4.29375e-014
lhumerus -6.89692 -36.5629 85.5945
lradius 135.191
lwrist 2.04687
lhand -24.9129 1.02502
lfingers 7.12502
lthumb 1.59571 30.9988
rfemur -93.0893 -6.8283 -8.68004
rtibia 42.1741
rfoot 18.2214 -17.0557
rtoes -21.1747
lfemur 28.8342 -13.1218 -25.0823
ltibia 2.8336
lfoot -1.5967 3.87946
ltoes 18.2371
